<svg width="50" height="50" viewBox="0 0 50 50" fill="none" xmlns="http://www.w3.org/2000/svg">
<path d="M33.7891 23.0469C34.3283 23.0469 34.7656 22.6096 34.7656 22.0703V19.1406C34.7656 18.6014 34.3283 18.1641 33.7891 18.1641H22.0703C21.5311 18.1641 21.0938 18.6014 21.0938 19.1406V42.5781C21.0938 43.1174 21.5311 43.5547 22.0703 43.5547H33.7891C34.3283 43.5547 34.7656 43.1174 34.7656 42.5781C34.7656 42.0389 34.3283 41.6016 33.7891 41.6016H23.0469V37.6953H27.9297C28.4689 37.6953 28.9062 37.258 28.9062 36.7188C28.9062 36.1795 28.4689 35.7422 27.9297 35.7422H23.0469V31.8359H32.8125V36.7188C32.8125 37.258 33.2498 37.6953 33.7891 37.6953C34.3283 37.6953 34.7656 37.258 34.7656 36.7188V27.9297C34.7656 27.3904 34.3283 26.9531 33.7891 26.9531C33.2498 26.9531 32.8125 27.3904 32.8125 27.9297V29.8828H23.0469V20.1172H26.9531V25C26.9531 25.5393 27.3904 25.9766 27.9297 25.9766C28.4689 25.9766 28.9062 25.5393 28.9062 25V20.1172H32.8125V22.0703C32.8125 22.6096 33.2498 23.0469 33.7891 23.0469Z" fill="#EEC962"/>
<path d="M28.9062 50C29.4456 50 29.8828 49.5628 29.8828 49.0234C29.8828 48.4841 29.4456 48.0469 28.9062 48.0469C28.3669 48.0469 27.9297 48.4841 27.9297 49.0234C27.9297 49.5628 28.3669 50 28.9062 50Z" fill="#EEC962"/>
<path d="M44.6289 6.44531C41.6673 6.44531 39.2578 8.85478 39.2578 11.8164V12.3047H16.6016V8.30078C16.6016 3.72373 12.8778 0 8.30078 0C3.72373 0 0 3.72373 0 8.30078V41.6992C0 46.2763 3.72373 50 8.30078 50H24.5116C25.0509 50 25.4882 49.5627 25.4882 49.0234C25.4882 48.4842 25.0509 48.0469 24.5116 48.0469H13.6385C15.4962 46.4866 16.6016 44.1947 16.6016 41.6992V14.2578H39.2578V44.6289C39.2578 45.1682 39.6951 45.6055 40.2344 45.6055C40.7736 45.6055 41.2109 45.1682 41.2109 44.6289C41.2109 42.7442 42.7442 41.2109 44.6289 41.2109C46.5136 41.2109 48.0469 42.7442 48.0469 44.6289C48.0469 46.5136 46.5136 48.0469 44.6289 48.0469H33.3009C32.7616 48.0469 32.3243 48.4842 32.3243 49.0234C32.3243 49.5627 32.7616 50 33.3009 50H44.6289C47.5905 50 50 47.5905 50 44.6289V11.8164C50 8.85478 47.5905 6.44531 44.6289 6.44531ZM8.30078 48.0469C4.80068 48.0469 1.95312 45.1993 1.95312 41.6992C1.95312 39.108 3.53906 36.8084 5.85938 35.8394V40.2344C5.85938 42.3883 7.61172 44.1406 9.76562 44.1396H14.1605C13.1914 46.461 10.8919 48.0469 8.30078 48.0469ZM14.6278 42.1875H9.76562C8.68867 42.1875 7.8125 41.3113 7.8125 40.2344V35.3722C7.9749 35.3598 8.13779 35.3516 8.30078 35.3516C11.8009 35.3516 14.6484 38.1991 14.6484 41.6992C14.6484 41.8622 14.6402 42.0251 14.6278 42.1875ZM14.6484 36.3584C13.1245 34.5501 10.8451 33.3984 8.30078 33.3984C5.80596 33.3984 3.51377 34.5033 1.95312 36.3615V8.30078C1.95312 4.80068 4.80068 1.95312 8.30078 1.95312C11.8009 1.95312 14.6484 4.80068 14.6484 8.30078V36.3584ZM48.0469 40.4887C47.1175 39.7201 45.9263 39.2578 44.6289 39.2578C43.3315 39.2578 42.1403 39.72 41.2109 40.4887V11.8164C41.2109 9.93174 42.7442 8.39844 44.6289 8.39844C46.5136 8.39844 48.0469 9.93174 48.0469 11.8164V40.4887Z" fill="#EEC962"/>
</svg>
