<svg width="25" height="25" viewBox="0 0 25 25" fill="none" xmlns="http://www.w3.org/2000/svg">
<path d="M13.8809 12.5008L24.7137 1.66788C25.0951 1.28649 25.0951 0.668127 24.7137 0.28678C24.3323 -0.0945678 23.714 -0.0946166 23.3326 0.28678L12.4997 11.1197L1.6669 0.28678C1.28551 -0.0946166 0.66715 -0.0946166 0.285803 0.28678C-0.0955443 0.668176 -0.0955931 1.28653 0.285803 1.66788L11.1186 12.5007L0.285803 23.3336C-0.0955931 23.715 -0.0955931 24.3334 0.285803 24.7147C0.476476 24.9054 0.726427 25.0007 0.976377 25.0007C1.22633 25.0007 1.47623 24.9054 1.66695 24.7147L12.4997 13.8819L23.3326 24.7147C23.5233 24.9054 23.7732 25.0007 24.0232 25.0007C24.2731 25.0007 24.523 24.9054 24.7137 24.7147C25.0951 24.3333 25.0951 23.715 24.7137 23.3336L13.8809 12.5008Z" fill="#172540"/>
</svg>
