<svg width="83" height="80" viewBox="0 0 83 80" fill="none" xmlns="http://www.w3.org/2000/svg">
<g clip-path="url(#clip0)">
<path d="M41.6769 32.3438C49.3258 32.3438 55.5486 26.2456 55.5486 18.75C55.5486 11.2544 49.3258 5.15625 41.6769 5.15625C34.028 5.15625 27.8052 11.2544 27.8052 18.75C27.8052 26.2456 34.028 32.3438 41.6769 32.3438ZM41.6769 9.84375C46.6883 9.84375 50.7653 13.8391 50.7653 18.75C50.7653 23.6609 46.6883 27.6562 41.6769 27.6562C36.6655 27.6562 32.5885 23.6609 32.5885 18.75C32.5885 13.8391 36.6655 9.84375 41.6769 9.84375Z" fill="#EEC962"/>
<path d="M69.7393 32.3438C74.5748 32.3438 78.5088 28.4886 78.5088 23.75C78.5088 19.0114 74.5748 15.1562 69.7393 15.1562C64.9038 15.1562 60.9698 19.0114 60.9698 23.75C60.9698 28.4886 64.9038 32.3438 69.7393 32.3438ZM69.7393 19.8438C71.9372 19.8438 73.7254 21.5961 73.7254 23.75C73.7254 25.9039 71.9372 27.6562 69.7393 27.6562C67.5413 27.6562 65.7531 25.9039 65.7531 23.75C65.7531 21.5961 67.5413 19.8438 69.7393 19.8438Z" fill="#EEC962"/>
<path d="M71.6686 37.6562H67.9694C63.6103 37.6562 59.8474 40.18 58.1328 43.805C54.6025 40.0284 49.5316 37.6562 43.9058 37.6562H39.4482C33.8223 37.6562 28.7515 40.0284 25.2212 43.805C23.5063 40.18 19.7434 37.6562 15.3844 37.6562H11.6852C5.7156 37.6562 0.858894 42.3869 0.858894 48.2016V65.2656C0.858894 67.79 2.96262 69.8438 5.5485 69.8438H20.1739C20.4192 72.6406 22.8191 74.8438 25.7359 74.8438H57.6181C60.5346 74.8438 62.9346 72.6406 63.18 69.8438H77.6383C80.3164 69.8438 82.495 67.7172 82.495 65.1031V48.2016C82.4949 42.3869 77.6382 37.6562 71.6686 37.6562ZM5.64225 48.2016C5.64225 44.9716 8.35314 42.3438 11.6852 42.3438H15.3844C18.7164 42.3438 21.4273 44.9716 21.4273 48.2016V49.8064C19.819 53.9102 20.1518 56.3695 20.1518 65.1562H5.64225V48.2016ZM58.4186 69.3717C58.4186 69.8044 58.0596 70.1562 57.6181 70.1562H25.7357C25.2942 70.1562 24.9351 69.8042 24.9351 69.3717V56.5659C24.9351 48.7238 31.4456 42.3438 39.448 42.3438H43.9056C51.9082 42.3438 58.4186 48.7237 58.4186 56.5658V69.3717ZM77.7115 65.1031C77.7115 65.1839 78.6031 65.1562 63.202 65.1562C63.202 56.3045 63.5322 53.9034 61.9264 49.8064V48.2016C61.9264 44.9716 64.6373 42.3438 67.9694 42.3438H71.6686C75.0006 42.3438 77.7115 44.9716 77.7115 48.2016V65.1031Z" fill="#EEC962"/>
<path d="M13.6145 32.3438C18.45 32.3438 22.384 28.4886 22.384 23.75C22.384 19.0114 18.45 15.1562 13.6145 15.1562C8.77902 15.1562 4.84502 19.0114 4.84502 23.75C4.84502 28.4886 8.77902 32.3438 13.6145 32.3438ZM13.6145 19.8438C15.8125 19.8438 17.6006 21.5961 17.6006 23.75C17.6006 25.9039 15.8125 27.6562 13.6145 27.6562C11.4166 27.6562 9.62838 25.9039 9.62838 23.75C9.62838 21.5961 11.4166 19.8438 13.6145 19.8438Z" fill="#EEC962"/>
</g>
<defs>
<clipPath id="clip0">
<rect width="81.636" height="80" fill="white" transform="translate(0.858894)"/>
</clipPath>
</defs>
</svg>
