<svg width="25" height="25" viewBox="0 0 25 25" fill="none" xmlns="http://www.w3.org/2000/svg">
<path d="M0.521871 4.64629C3.95302 7.5521 9.97362 12.6643 11.7432 14.2583C11.9807 14.4734 12.2355 14.5828 12.5 14.5828C12.764 14.5828 13.0183 14.4745 13.2553 14.2604C15.0264 12.6648 21.047 7.5521 24.4782 4.64629C24.6918 4.46572 24.7243 4.14834 24.5514 3.92759C24.1516 3.41748 23.5555 3.125 22.9166 3.125H2.08334C1.44453 3.125 0.848384 3.41748 0.448629 3.92764C0.27568 4.14834 0.308248 4.46572 0.521871 4.64629Z" fill="#EEC962"/>
<path d="M24.6979 6.22092C24.5133 6.13498 24.2961 6.16496 24.1425 6.29621C20.3374 9.5219 15.4811 13.6566 13.9531 15.0334C13.0956 15.8075 11.9054 15.8075 11.0458 15.0323C9.41719 13.565 3.96367 8.92883 0.85752 6.29616C0.702881 6.16491 0.485205 6.13596 0.3021 6.22087C0.118018 6.30637 0 6.4905 0 6.69343V19.7916C0 20.9406 0.934326 21.8749 2.08335 21.8749H22.9167C24.0657 21.8749 25 20.9406 25 19.7916V6.69343C25 6.4905 24.882 6.30588 24.6979 6.22092Z" fill="#EEC962"/>
</svg>
