<svg width="50" height="50" viewBox="0 0 50 50" fill="none" xmlns="http://www.w3.org/2000/svg">
<g clip-path="url(#clip0)">
<path d="M39.5945 39.8627C39.1691 39.5375 38.5612 39.6191 38.2363 40.0442C37.9113 40.4693 37.9926 41.0774 38.4177 41.4024L40.0735 42.6679C40.2486 42.8017 40.4556 42.867 40.6615 42.867C40.9265 42.867 41.1896 42.7587 41.38 42.5485L44.5449 39.054C44.9041 38.6574 44.8739 38.0446 44.4772 37.6854C44.0806 37.3263 43.4678 37.3566 43.1086 37.7532L40.5421 40.5871L39.5945 39.8627Z" fill="#EEC962"/>
<path d="M49.8819 34.6906C49.8708 34.1966 49.4897 33.7902 48.9976 33.7472C46.6926 33.5457 43.8562 31.9974 41.7712 29.8029C41.5883 29.6105 41.3345 29.5015 41.069 29.5014C41.0689 29.5014 41.0688 29.5014 41.0687 29.5014C40.8034 29.5014 40.5497 29.6102 40.3667 29.8024C39.4309 30.7862 38.3445 31.6395 37.2235 32.3004C35.2564 30.1044 32.8352 28.4865 29.9975 27.4681C29.9728 27.4581 29.9478 27.4492 29.9222 27.4412C29.7012 27.363 29.4776 27.2883 29.2515 27.2171C31.6514 24.8237 33.2656 21.6784 33.2656 18.8568V17.3345C34.4 16.8406 35.1956 15.7083 35.1956 14.3932C35.1956 13.0271 34.3358 11.8586 33.1292 11.3989C32.6312 6.56387 29.2247 2.49943 24.5455 1.15476C24.4072 0.496185 23.8221 0 23.1231 0H19.612C18.9378 0 18.3711 0.461982 18.2076 1.08568C15.9059 1.69949 13.8035 3.00967 12.2273 4.83124C10.6274 6.68014 9.63251 8.98908 9.37981 11.3994C8.17263 11.8594 7.31252 13.0276 7.31252 14.3932C7.31252 15.7089 8.10926 16.8414 9.24523 17.3351V18.8569C9.24523 21.6759 10.8597 24.8223 13.2595 27.2174C13.04 27.2864 12.8227 27.3586 12.6079 27.4344C12.5656 27.4464 12.5245 27.4612 12.4845 27.4787C9.3084 28.6245 6.65675 30.5211 4.58016 33.1402C2.58301 35.6592 1.16325 38.7699 0.360401 42.3867C0.0746659 43.6792 -0.140241 45.3035 0.741091 46.4009C1.60198 47.4729 3.14237 47.6102 4.38831 47.6102H10.7265C11.2617 47.6102 11.6954 47.1764 11.6954 46.6413C11.6954 46.1063 11.2617 45.6724 10.7265 45.6724H4.38831C3.22919 45.6724 2.51044 45.5092 2.25203 45.1875C1.97831 44.8466 1.9785 44.045 2.25232 42.8057C3.25932 38.27 5.72155 32.7196 11.654 29.9171C11.4715 33.1904 13.2451 35.33 14.3725 36.688C14.545 36.8959 14.7966 37.0222 15.0664 37.0367C15.3361 37.0516 15.5998 36.9522 15.7935 36.7638L21.2542 31.4534L26.7174 36.764C26.8987 36.9402 27.1411 37.0381 27.3928 37.0381C27.4101 37.0381 27.4275 37.0377 27.445 37.0367C27.7148 37.0221 27.9665 36.8955 28.1389 36.6873C29.2647 35.3282 31.0357 33.1873 30.8549 29.9209C32.576 30.7373 34.0966 31.8292 35.4043 33.1894C34.6235 33.4916 33.8557 33.6847 33.1397 33.7473C32.6479 33.7902 32.267 34.1963 32.2555 34.69C32.1744 38.1541 32.7518 40.636 34.3139 43.541C34.3271 43.5656 34.8549 44.5118 35.6774 45.6726H19.4985C18.9633 45.6726 18.5295 46.1065 18.5295 46.6415C18.5295 47.1766 18.9633 47.6104 19.4985 47.6104H37.2163C38.3844 48.9014 39.7621 50.0002 41.0686 50.0002C44.2207 50.0002 47.7887 43.6056 47.823 43.5416C49.3826 40.6362 49.9598 38.1547 49.8819 34.6906ZM31.1514 11.1897H25.8167C24.8088 8.55685 24.6182 6.38578 24.584 3.1987C28.0788 4.43476 30.6194 7.51845 31.1514 11.1897ZM20.096 1.93785H22.639C22.6451 5.68835 22.7402 8.22848 23.7555 11.1897H18.9815C19.995 8.22838 20.09 5.68796 20.096 1.93785ZM18.1521 3.12226C18.1201 6.35129 17.9348 8.53572 16.9207 11.1898H11.3589C11.9116 7.47078 14.5851 4.30347 18.1521 3.12226ZM10.5188 13.1275H17.0007C17.0578 13.1739 17.113 13.1798 17.1593 13.1275H31.9921C32.69 13.1275 33.2578 13.6952 33.2578 14.3932C33.2578 15.0927 32.6901 15.6618 31.9921 15.6618H10.5188C9.81941 15.6618 9.25037 15.0927 9.25037 14.3932C9.25037 13.6953 9.81932 13.1275 10.5188 13.1275ZM11.1831 18.8569V17.5995H31.3277V18.8569C31.3277 22.551 27.7488 27.1198 23.6689 28.6343C21.8837 29.2977 20.6162 29.2971 18.8268 28.6322C14.7549 27.1114 11.1831 22.5434 11.1831 18.8569ZM15.2043 34.6337C14.2015 33.3244 13.2358 31.6056 13.6999 29.1105C14.1273 28.9725 14.569 28.8467 15.0269 28.7353C16.004 29.4522 17.0578 30.0401 18.1502 30.4481C18.5018 30.5787 18.8402 30.6864 19.1712 30.7759L15.2043 34.6337ZM27.3056 34.6331L23.3363 30.7747C23.663 30.6861 23.9969 30.5798 24.3436 30.4509C25.4415 30.0434 26.5004 29.4543 27.482 28.7351C27.9343 28.8452 28.3766 28.9699 28.8082 29.1096C29.2733 31.6012 28.3081 33.3218 27.3056 34.6331ZM46.1153 42.6256C44.9694 44.7641 42.286 48.0621 41.0686 48.0621C39.8513 48.0621 37.1678 44.7641 36.0213 42.6243C34.7409 40.2434 34.2154 38.258 34.187 35.5547C35.2322 35.3558 36.3204 34.9657 37.3905 34.421C37.4281 34.4046 37.4647 34.3853 37.5007 34.3638C38.7502 33.7143 39.9722 32.8548 41.0682 31.8333C43.1319 33.7585 45.6442 35.1163 47.9495 35.5548C47.919 38.2585 47.3937 40.2443 46.1153 42.6256Z" fill="#EEC962"/>
<path d="M15.1125 45.6725C14.5773 45.6725 14.1436 46.1064 14.1436 46.6414C14.1436 47.1764 14.5773 47.6103 15.1125 47.6103H15.118C15.6531 47.6103 16.0841 47.1764 16.0841 46.6414C16.0841 46.1064 15.6476 45.6725 15.1125 45.6725Z" fill="#EEC962"/>
</g>
<defs>
<clipPath id="clip0">
<rect width="50" height="50" fill="white"/>
</clipPath>
</defs>
</svg>
