<svg width="50" height="50" viewBox="0 0 50 50" fill="none" xmlns="http://www.w3.org/2000/svg">
<g clip-path="url(#clip0)">
<path d="M33.333 27.5C30.5755 27.5 28.333 29.7425 28.333 32.5C28.333 35.2575 30.5755 37.5 33.333 37.5C36.0905 37.5 38.333 35.2575 38.333 32.5C38.333 29.7425 36.0905 27.5 33.333 27.5ZM33.333 35.8333C31.4946 35.8333 29.9997 34.3383 29.9997 32.5C29.9997 30.6616 31.4947 29.1667 33.333 29.1667C35.1714 29.1667 36.6663 30.6617 36.6663 32.5C36.6664 34.3384 35.1714 35.8333 33.333 35.8333Z" fill="#EEC962"/>
<path d="M35 35.8333V39.2766L33.795 38.4733C33.515 38.2858 33.1509 38.2858 32.8708 38.4733L31.6666 39.2766V35.8333H30V40.8332C30 41.1408 30.1691 41.4233 30.4408 41.5682C30.7108 41.7132 31.0408 41.6965 31.2958 41.5265L33.3333 40.1682L35.3708 41.5265C35.51 41.619 35.6717 41.6665 35.8333 41.6665C35.9683 41.6665 36.1033 41.634 36.2267 41.5682C36.4975 41.4232 36.6667 41.1407 36.6667 40.8332V35.8333H35Z" fill="#EEC962"/>
<path d="M29.9998 8.33325H19.1665V9.99995H29.9998V8.33325Z" fill="#EEC962"/>
<path d="M38.3332 13.3334H11.6665V15.0001H38.3332V13.3334Z" fill="#EEC962"/>
<path d="M29.9998 18.3333H11.6665V20H29.9998V18.3333Z" fill="#EEC962"/>
<path d="M38.3335 18.3333H33.3335V20H38.3335V18.3333Z" fill="#EEC962"/>
<path d="M38.3332 23.3334H11.6665V25.0001H38.3332V23.3334Z" fill="#EEC962"/>
<path d="M21.6665 28.3333H11.6665V30H21.6665V28.3333Z" fill="#EEC962"/>
<path d="M15.8332 32.5H11.6665V34.1667H15.8332V32.5Z" fill="#EEC962"/>
<path d="M21.6665 32.5H19.1665V34.1667H21.6665V32.5Z" fill="#EEC962"/>
<path d="M45.8332 0C43.5357 0 41.6665 1.86914 41.6665 4.1667V5.8334C41.6665 6.29336 42.039 6.6667 42.4998 6.6667H49.1665C49.6273 6.6667 49.9998 6.29336 49.9998 5.8334V4.1667C49.9999 1.86914 48.1308 0 45.8332 0ZM48.3332 5H43.3332V4.1667C43.3332 2.78838 44.4549 1.6667 45.8332 1.6667C47.2115 1.6667 48.3332 2.78838 48.3332 4.1667V5Z" fill="#EEC962"/>
<path d="M45.8331 0H10.8331C8.53564 0 6.6665 1.86914 6.6665 4.1667V44.1667H8.3332V4.1667C8.3332 2.78838 9.45488 1.6667 10.8332 1.6667H42.5016C41.9774 2.36338 41.6666 3.2292 41.6666 4.1667V45.8334C41.6666 47.2117 40.5449 48.3334 39.1666 48.3334H7.49981V50H39.1665C41.464 50 43.3332 48.1309 43.3332 45.8333V4.1667C43.3332 2.78838 44.4549 1.6667 45.8332 1.6667C46.294 1.6667 46.6665 1.29336 46.6665 0.833398C46.6665 0.373438 46.2939 0 45.8331 0Z" fill="#EEC962"/>
<path d="M39.1667 48.3334C37.7884 48.3334 36.6667 47.2117 36.6667 45.8334V44.1667C36.6667 43.7058 36.2942 43.3334 35.8334 43.3334H0.833301C0.37334 43.3334 0 43.7058 0 44.1667V45.8334C0 48.1309 1.86914 50.0001 4.1667 50.0001H39.1667C39.6275 50.0001 40 49.6276 40 49.1668C40 48.7059 39.6275 48.3334 39.1667 48.3334ZM4.1667 48.3334C2.78838 48.3334 1.6667 47.2117 1.6667 45.8334V45.0001H35V45.8334C35 46.7709 35.3108 47.6367 35.835 48.3334H4.1667Z" fill="#EEC962"/>
</g>
<defs>
<clipPath id="clip0">
<rect width="50" height="50" fill="white"/>
</clipPath>
</defs>
</svg>
