<svg width="35" height="35" viewBox="0 0 35 35" fill="none" xmlns="http://www.w3.org/2000/svg">
<g clip-path="url(#clip0)">
<path d="M2.18749 2.38127C-0.562926 5.23815 -9.52184e-06 8.27294 -9.52184e-06 17.4925C-9.52184e-06 25.1488 -1.33584 32.824 5.65541 34.6309C7.83853 35.1923 27.1819 35.1923 29.3621 34.6279C32.2729 33.8769 34.6412 31.5159 34.965 27.399C35.0102 26.8244 35.0102 8.17085 34.9635 7.5846C34.6194 3.1994 31.92 0.672105 28.3631 0.16023C27.5479 0.042105 27.3846 0.00710501 23.2021 -0.000186656C8.36645 0.00710501 5.11436 -0.65352 2.18749 2.38127Z" fill="url(#paint0_linear)"/>
<path d="M17.4971 4.57766C12.2019 4.57766 7.17355 4.10662 5.25292 9.03578C4.45959 11.0716 4.5748 13.7156 4.5748 17.5014C4.5748 20.8235 4.46834 23.9458 5.25292 25.9656C7.16917 30.8977 12.2383 30.4252 17.4942 30.4252C22.5648 30.4252 27.7929 30.9531 29.7369 25.9656C30.5317 23.9093 30.415 21.3047 30.415 17.5014C30.415 12.4527 30.6936 9.19328 28.245 6.7462C25.7658 4.26703 22.4131 4.57766 17.4913 4.57766H17.4971ZM16.3392 6.90662C27.3846 6.88912 28.7904 5.6612 28.0146 22.7193C27.739 28.7525 23.1452 28.0904 17.4985 28.0904C7.20271 28.0904 6.90667 27.7958 6.90667 17.4956C6.90667 7.07578 7.72334 6.91245 16.3392 6.9037V6.90662ZM24.395 9.05182C23.539 9.05182 22.8448 9.74599 22.8448 10.602C22.8448 11.4581 23.539 12.1522 24.395 12.1522C25.251 12.1522 25.9452 11.4581 25.9452 10.602C25.9452 9.74599 25.251 9.05182 24.395 9.05182ZM17.4971 10.8645C13.8323 10.8645 10.8617 13.8366 10.8617 17.5014C10.8617 21.1662 13.8323 24.1368 17.4971 24.1368C21.1619 24.1368 24.1311 21.1662 24.1311 17.5014C24.1311 13.8366 21.1619 10.8645 17.4971 10.8645ZM17.4971 13.1935C23.1919 13.1935 23.1992 21.8093 17.4971 21.8093C11.8038 21.8093 11.795 13.1935 17.4971 13.1935Z" fill="white"/>
</g>
<defs>
<linearGradient id="paint0_linear" x1="2.2546" y1="32.7643" x2="34.7834" y2="4.61103" gradientUnits="userSpaceOnUse">
<stop stop-color="#FFDD55"/>
<stop offset="0.5" stop-color="#FF543E"/>
<stop offset="1" stop-color="#C837AB"/>
</linearGradient>
<clipPath id="clip0">
<rect width="35" height="35" fill="white"/>
</clipPath>
</defs>
</svg>
