<svg width="50" height="50" viewBox="0 0 50 50" fill="none" xmlns="http://www.w3.org/2000/svg">
<path d="M37.6491 16.9383L30.7734 8.24448C29.6031 6.77113 27.9103 5.79935 26.0504 5.52767V1.04493C26.0504 0.470217 25.5802 0 25.0054 0C24.4307 0 23.9605 0.470217 23.9605 1.04493V5.52767C22.1005 5.7889 20.4078 6.76068 19.2479 8.24448L12.3514 16.9487C11.7558 17.7115 11.4214 18.652 11.4214 19.6237V45.7365C11.4318 48.098 13.3545 50.0102 15.716 49.9998C15.7265 49.9998 15.7265 49.9998 15.7369 49.9998H34.2635C36.625 50.0207 38.5582 48.1189 38.5791 45.7574C38.5791 45.7469 38.5791 45.7469 38.5791 45.7365V19.6237C38.5791 18.652 38.2447 17.7115 37.6491 16.9383ZM25.0054 15.7157C26.6878 15.7157 28.0462 17.0741 28.0462 18.7565C28.0462 20.4388 26.6878 21.7972 25.0054 21.7972C23.3231 21.7972 21.9647 20.4388 21.9647 18.7565C21.9647 17.0846 23.3231 15.7157 25.0054 15.7157ZM36.4997 45.7365C36.4997 46.9591 35.4965 47.9099 34.274 47.9099H15.7369C14.5144 47.9099 13.5112 46.9591 13.5112 45.7365V19.6237C13.5112 19.1222 13.6784 18.6311 13.9919 18.2444L20.878 9.54019C21.6512 8.56841 22.738 7.8892 23.9605 7.64887V13.7303C21.181 14.3051 19.4046 17.0219 19.9793 19.8014C20.5541 22.5809 23.2709 24.3573 26.0504 23.7826C28.8299 23.2078 30.6063 20.491 30.0315 17.7115C29.6136 15.7157 28.0566 14.1483 26.0504 13.7303V7.64887C26.4788 7.73246 26.8968 7.87875 27.2938 8.06684C28.0044 8.41167 28.6313 8.91323 29.1225 9.54019L36.019 18.234C36.3325 18.6311 36.4997 19.1222 36.4997 19.6237V45.7365Z" fill="#EEC962"/>
<path d="M28.3387 38.1085C27.8789 36.6561 26.5309 35.6634 25.0053 35.6634C24.2321 35.6634 23.6051 35.0364 23.6051 34.2632C23.6051 33.4899 24.2321 32.863 25.0053 32.863C25.7786 32.863 26.4056 33.4899 26.4056 34.2632C26.4056 34.8379 26.8758 35.3081 27.4505 35.3081C28.0252 35.3081 28.4954 34.8379 28.4954 34.2632C28.4954 32.7376 27.5027 31.3896 26.0503 30.9299V30.4701C26.0503 29.8954 25.5801 29.4252 25.0053 29.4252C24.4306 29.4252 23.9604 29.8954 23.9604 30.4701V30.9299C22.1214 31.5046 21.0973 33.469 21.672 35.3081C22.1318 36.7606 23.4798 37.7532 25.0053 37.7532C25.7786 37.7532 26.4056 38.3802 26.4056 39.1534C26.4056 39.9267 25.7786 40.5536 25.0053 40.5536C24.2321 40.5536 23.6051 39.9267 23.6051 39.1534C23.6051 38.5787 23.1349 38.1085 22.5602 38.1085C21.9855 38.1085 21.5153 38.5787 21.5153 39.1534C21.5153 40.679 22.508 42.027 23.9604 42.4868V43.0092C23.9604 43.5839 24.4306 44.0542 25.0053 44.0542C25.5801 44.0542 26.0503 43.5839 26.0503 43.0092V42.4868C27.8893 41.9121 28.9134 39.9476 28.3387 38.1085Z" fill="#EEC962"/>
</svg>
