<svg width="40" height="40" viewBox="0 0 40 40" fill="none" xmlns="http://www.w3.org/2000/svg">
<g clip-path="url(#clip0)">
<path d="M39.3019 30.1219C39.3169 30.1188 39.3316 30.1148 39.3464 30.111C39.359 30.1077 39.3717 30.1051 39.3841 30.1013C39.3986 30.0969 39.4127 30.0914 39.4268 30.0864C39.4393 30.0818 39.4519 30.0778 39.4643 30.0726C39.4776 30.067 39.4904 30.0606 39.5034 30.0544C39.516 30.0484 39.5288 30.0429 39.5412 30.0362C39.5536 30.0296 39.5652 30.022 39.5773 30.0149C39.5896 30.0075 39.6021 30.0005 39.6142 29.9924C39.627 29.9839 39.6389 29.9744 39.6513 29.9651C39.6617 29.9574 39.6723 29.9501 39.6825 29.9418C39.7013 29.9264 39.7191 29.91 39.7364 29.8931C39.7395 29.8901 39.7429 29.8875 39.746 29.8844C39.7493 29.8812 39.752 29.8776 39.7552 29.8742C39.7718 29.8571 39.788 29.8395 39.8033 29.821C39.8122 29.8101 39.8199 29.7988 39.8283 29.7876C39.8368 29.776 39.8458 29.7648 39.8538 29.7528C39.8624 29.7399 39.8699 29.7266 39.8778 29.7135C39.8844 29.7024 39.8914 29.6915 39.8975 29.68C39.9047 29.6667 39.9107 29.653 39.9171 29.6394C39.9228 29.6274 39.9288 29.6155 39.934 29.6031C39.9395 29.5898 39.9439 29.5763 39.9488 29.5627C39.9535 29.5496 39.9586 29.5365 39.9627 29.5231C39.9668 29.5094 39.9698 29.4955 39.9733 29.4817C39.9766 29.468 39.9806 29.4546 39.9832 29.4408C39.9865 29.4245 39.9884 29.4081 39.9908 29.3917C39.9924 29.3801 39.9946 29.3687 39.9957 29.357C39.9986 29.3282 40.0001 29.2994 40.0001 29.2705V10.7289C40.0001 10.2497 39.6118 9.86139 39.1327 9.86139H11.8074C11.7998 9.86139 11.7924 9.86231 11.7847 9.86255C11.7682 9.86301 11.7518 9.8637 11.7354 9.86509C11.7223 9.86613 11.7093 9.86763 11.6964 9.86937C11.6816 9.87122 11.6669 9.87342 11.6522 9.87608C11.6384 9.87851 11.6248 9.8814 11.6113 9.88452C11.5975 9.88776 11.5837 9.89123 11.5701 9.89516C11.5565 9.89898 11.5432 9.90314 11.5301 9.90754C11.5165 9.91216 11.503 9.91702 11.4897 9.92234C11.4771 9.92732 11.4647 9.93241 11.4524 9.93796C11.4388 9.94409 11.4253 9.95068 11.4119 9.9575C11.4004 9.9634 11.3892 9.96942 11.3781 9.97578C11.3647 9.98341 11.3515 9.99151 11.3384 9.99984C11.3277 10.0068 11.3171 10.0139 11.3067 10.0212C11.2945 10.0299 11.2823 10.0389 11.2704 10.0484C11.2595 10.0571 11.2489 10.066 11.2384 10.0751C11.2279 10.0843 11.2177 10.0934 11.2076 10.1031C11.1961 10.1141 11.1852 10.1256 11.1743 10.1371C11.1688 10.1429 11.1631 10.148 11.1579 10.1539C11.1547 10.1574 11.1523 10.1612 11.1493 10.1647C11.1384 10.1773 11.1282 10.1904 11.1181 10.2037C11.1107 10.2135 11.103 10.2232 11.0961 10.2331C11.0871 10.2461 11.0787 10.2594 11.0704 10.2728C11.0636 10.2838 11.0565 10.2947 11.0503 10.3059C11.043 10.3188 11.0366 10.3321 11.0301 10.3454C11.024 10.3576 11.0178 10.3697 11.0124 10.3821C11.0067 10.3952 11.0017 10.4087 10.9967 10.422C10.9918 10.4351 10.9867 10.448 10.9824 10.4612C10.9781 10.4745 10.9746 10.488 10.9709 10.5016C10.9672 10.5155 10.9633 10.5292 10.9602 10.5432C10.9573 10.5563 10.9553 10.5696 10.953 10.5828C10.9505 10.5978 10.9479 10.6128 10.9461 10.6279C10.9446 10.6404 10.9439 10.6531 10.943 10.6658C10.9418 10.682 10.9408 10.6982 10.9405 10.7145C10.9404 10.7193 10.9398 10.7239 10.9398 10.7286V16.0782C10.9398 16.5574 11.3281 16.9457 11.8073 16.9457C12.2865 16.9457 12.6748 16.5574 12.6748 16.0782V12.6552L20.3873 19.4836C20.347 19.5119 20.3083 19.5433 20.2722 19.5792L12.6747 27.1767V21.476C12.6747 20.9968 12.2864 20.6085 11.8072 20.6085C11.328 20.6085 10.9397 20.9968 10.9397 21.476V22.5359H6.4578C5.97861 22.5359 5.59033 22.9242 5.59033 23.4034C5.59033 23.8826 5.97861 24.2708 6.4578 24.2708H10.9397V29.271C10.9397 29.7502 11.328 30.1385 11.8072 30.1385H39.1324C39.161 30.1385 39.1896 30.137 39.218 30.1342C39.2313 30.133 39.2442 30.1304 39.2572 30.1286C39.2723 30.1265 39.2871 30.1247 39.3019 30.1219ZM38.2651 27.1769L30.6674 19.5793C30.6626 19.5745 30.6574 19.5704 30.6524 19.5658L36.3642 14.7199C36.7294 14.4099 36.7743 13.8626 36.4643 13.4972C36.1546 13.1321 35.6073 13.087 35.2417 13.3971L25.482 21.6773L14.0957 11.5964H38.2651V27.1769V27.1769ZM21.4991 20.8063C21.561 20.7444 21.6112 20.6755 21.6504 20.6021L24.8949 23.4746C25.0589 23.6198 25.2643 23.6926 25.4699 23.6926C25.6696 23.6926 25.8691 23.6241 26.0312 23.4867L29.3377 20.6814C29.3677 20.7253 29.4016 20.7673 29.4406 20.8063L37.0381 28.4038H13.9016L21.4991 20.8063Z" fill="#172540"/>
<path d="M0.867468 19.7408H15.5181C15.9973 19.7408 16.3855 19.3525 16.3855 18.8733C16.3855 18.3941 15.9973 18.0059 15.5181 18.0059H0.867468C0.388279 18.0059 0 18.3941 0 18.8733C0 19.3525 0.388279 19.7408 0.867468 19.7408Z" fill="#172540"/>
<path d="M2.38553 14.9603H8.96384C9.44303 14.9603 9.8313 14.5721 9.8313 14.0929C9.8313 13.6137 9.44303 13.2254 8.96384 13.2254H2.38553C1.90635 13.2254 1.51807 13.6137 1.51807 14.0929C1.51807 14.5721 1.90635 14.9603 2.38553 14.9603Z" fill="#172540"/>
<path d="M7.2289 26.1987H0.867468C0.388279 26.1987 0 26.587 0 27.0662C0 27.5454 0.388279 27.9337 0.867468 27.9337H7.2289C7.70809 27.9337 8.09637 27.5454 8.09637 27.0662C8.09637 26.587 7.70809 26.1987 7.2289 26.1987Z" fill="#172540"/>
</g>
<defs>
<clipPath id="clip0">
<rect width="40" height="40" fill="white"/>
</clipPath>
</defs>
</svg>
