<svg width="80" height="80" viewBox="0 0 80 80" fill="none" xmlns="http://www.w3.org/2000/svg">
<g clip-path="url(#clip0)">
<path d="M78.5287 28.4787C77.6144 27.4526 76.3649 26.7851 75.0036 26.5956V26.5928L53.7422 23.6558L45.3286 3.55145C44.1 0.608738 40.7186 -0.780844 37.776 0.4477C36.3732 1.03343 35.2578 2.14865 34.6723 3.55145L26.2586 23.6558L4.99719 26.5928C1.82949 27.0337 -0.381014 29.9594 0.0599157 33.1271C0.249412 34.4884 0.916833 35.7378 1.94299 36.6522L17.9619 50.9369L14.6705 73.3523C14.314 75.6284 15.3594 77.8962 17.3218 79.1033C19.2566 80.3406 21.7453 80.2944 23.6328 78.9861L40.0002 67.8554L56.3677 78.9975C59.0088 80.79 62.603 80.1022 64.3957 77.4611C65.2103 76.2609 65.5439 74.7983 65.3301 73.3637L62.0389 50.9395L78.0578 36.6548C80.4456 34.5272 80.6565 30.8665 78.5287 28.4787ZM57.0849 47.7112C56.3682 48.3515 56.0215 49.3091 56.162 50.2597L59.5903 74.2581L41.6145 62.0361C40.6454 61.3776 39.3723 61.3776 38.4032 62.0361L20.3216 74.1838L23.8385 50.2483C23.9751 49.3015 23.6286 48.3492 22.9156 47.7114L5.77393 32.2609L28.6524 29.104C29.6541 28.9659 30.508 28.3085 30.8979 27.3756L40.0344 5.71425C40.0448 5.72697 40.0525 5.74154 40.0573 5.75711L49.0996 27.3642C49.4894 28.2971 50.3435 28.9545 51.3451 29.0926L74.2522 32.3895L57.0849 47.7112Z" fill="#EEC962"/>
</g>
<defs>
<clipPath id="clip0">
<rect width="80" height="80" fill="white"/>
</clipPath>
</defs>
</svg>
