<?xml version="1.0" standalone="no"?>
<!DOCTYPE svg PUBLIC "-//W3C//DTD SVG 20010904//EN"
 "http://www.w3.org/TR/2001/REC-SVG-20010904/DTD/svg10.dtd">
<svg version="1.0" xmlns="http://www.w3.org/2000/svg"
 width="260.000000pt" height="260.000000pt" viewBox="0 0 260.000000 260.000000"
 preserveAspectRatio="xMidYMid meet">
<metadata>
Created by potrace 1.11, written by Peter Selinger 2001-2013
</metadata>
<g transform="translate(0.000000,260.000000) scale(0.100000,-0.100000)"
fill="#000000" stroke="none">
<path d="M1218 2581 c-32 -14 -68 -41 -136 -99 -11 -10 -43 -37 -72 -62 -30
-25 -88 -74 -130 -110 -42 -36 -100 -85 -129 -110 -91 -76 -265 -224 -277
-235 -6 -5 -30 -26 -54 -45 -24 -19 -48 -40 -54 -45 -6 -6 -72 -61 -146 -124
-157 -132 -175 -151 -202 -210 -17 -36 -19 -56 -14 -105 13 -129 121 -216 251
-203 l51 5 -1 -586 c0 -354 3 -595 9 -607 22 -46 -9 -44 987 -45 l946 0 24 26
24 25 0 592 0 592 61 -3 c209 -12 324 239 176 385 -33 33 -74 69 -157 138 -33
28 -64 55 -70 60 -7 6 -10 116 -10 299 l-1 288 -26 23 c-24 21 -34 22 -202 23
-224 0 -219 3 -226 -132 l-5 -96 -90 76 c-178 151 -276 235 -285 245 -3 3 -22
15 -43 28 -49 30 -146 36 -199 12z m137 -157 c21 -14 43 -31 50 -37 6 -7 36
-32 65 -57 29 -25 58 -49 64 -55 6 -5 40 -35 76 -65 73 -62 118 -100 134 -115
6 -5 40 -35 76 -65 36 -30 67 -57 70 -60 3 -3 34 -30 70 -60 36 -30 70 -59 76
-65 11 -10 60 -52 194 -166 41 -35 77 -66 80 -69 3 -3 31 -28 64 -55 32 -27
62 -60 68 -74 13 -35 -7 -76 -43 -92 -41 -17 -62 -6 -153 76 -12 11 -44 39
-72 62 -27 23 -60 51 -74 63 -14 12 -45 39 -70 60 -25 21 -56 48 -70 60 -14
12 -47 40 -74 63 -27 23 -54 47 -60 52 -6 6 -38 33 -71 60 -32 28 -66 57 -75
65 -9 8 -30 26 -46 40 -16 14 -59 50 -94 80 -36 30 -70 60 -76 65 -47 43 -120
101 -134 107 -10 4 -29 4 -43 0 -19 -6 -241 -186 -405 -330 -13 -11 -41 -35
-64 -54 -23 -18 -46 -38 -52 -43 -6 -6 -56 -48 -111 -95 -55 -47 -111 -95
-125 -106 -14 -12 -61 -53 -105 -90 -179 -153 -178 -152 -226 -133 -31 12 -50
48 -44 81 5 23 26 45 125 129 58 49 208 176 250 213 14 11 52 44 85 71 33 28
62 53 65 56 3 3 50 43 106 90 55 46 186 156 290 245 104 88 196 163 204 167
27 10 37 7 75 -19z m786 -139 c3 -33 4 -311 1 -318 -2 -4 -29 14 -60 40 -31
26 -65 55 -74 63 -15 12 -18 31 -18 116 0 63 4 104 11 106 24 8 139 3 140 -7z
m-819 -227 c7 -7 42 -38 78 -68 36 -30 67 -57 70 -60 3 -3 50 -43 105 -90 55
-47 105 -89 111 -95 6 -5 35 -30 64 -55 29 -25 58 -50 64 -55 6 -6 56 -48 111
-95 141 -119 166 -142 195 -170 l25 -25 0 -595 -1 -595 -190 -1 -191 -1 0 341
c0 188 -3 353 -6 367 -13 51 -27 53 -450 54 -216 0 -404 -3 -418 -8 -48 -15
-50 -29 -52 -402 l-2 -350 -187 -2 -188 -2 -1 32 c0 18 -1 288 -1 600 -1 473
2 571 13 581 8 7 149 127 314 267 165 139 349 295 409 346 60 51 111 93 112
93 1 0 9 -6 16 -12z m271 -1297 c16 -1 17 -22 17 -305 l0 -303 -310 -1 -310 0
0 302 c0 167 2 305 4 307 3 3 519 3 599 0z"/>
<path d="M1033 1677 c-39 -17 -43 -47 -43 -302 0 -241 0 -244 23 -271 l23 -27
264 0 264 0 23 27 c23 27 23 30 23 271 0 248 -5 286 -39 301 -24 11 -513 12
-538 1z m415 -146 c9 -1 12 -38 12 -151 l0 -150 -158 0 -159 0 0 149 c-1 146
0 150 20 153 19 3 249 2 285 -1z"/>
<path d="M1344 598 c-54 -25 -46 -120 10 -134 86 -21 138 66 74 126 -24 22
-51 25 -84 8z"/>
</g>
</svg>
