<svg width="147" height="51" viewBox="0 0 147 51" fill="none" xmlns="http://www.w3.org/2000/svg">
<path d="M68.26 22.24C67.1533 22.24 66.08 22.0933 65.04 21.8C64.0133 21.4933 63.1867 21.1 62.56 20.62L63.66 18.18C64.26 18.62 64.9733 18.9733 65.8 19.24C66.6267 19.5067 67.4533 19.64 68.28 19.64C69.2 19.64 69.88 19.5067 70.32 19.24C70.76 18.96 70.98 18.5933 70.98 18.14C70.98 17.8067 70.8467 17.5333 70.58 17.32C70.3267 17.0933 69.9933 16.9133 69.58 16.78C69.18 16.6467 68.6333 16.5 67.94 16.34C66.8733 16.0867 66 15.8333 65.32 15.58C64.64 15.3267 64.0533 14.92 63.56 14.36C63.08 13.8 62.84 13.0533 62.84 12.12C62.84 11.3067 63.06 10.5733 63.5 9.92C63.94 9.25333 64.6 8.72667 65.48 8.34C66.3733 7.95333 67.46 7.76 68.74 7.76C69.6333 7.76 70.5067 7.86667 71.36 8.08C72.2133 8.29333 72.96 8.6 73.6 9L72.6 11.46C71.3067 10.7267 70.0133 10.36 68.72 10.36C67.8133 10.36 67.14 10.5067 66.7 10.8C66.2733 11.0933 66.06 11.48 66.06 11.96C66.06 12.44 66.3067 12.8 66.8 13.04C67.3067 13.2667 68.0733 13.4933 69.1 13.72C70.1667 13.9733 71.04 14.2267 71.72 14.48C72.4 14.7333 72.98 15.1333 73.46 15.68C73.9533 16.2267 74.2 16.9667 74.2 17.9C74.2 18.7 73.9733 19.4333 73.52 20.1C73.08 20.7533 72.4133 21.2733 71.52 21.66C70.6267 22.0467 69.54 22.24 68.26 22.24ZM93.2786 11.24L89.3786 22H86.3786L83.9586 15.32L81.4586 22H78.4586L74.5786 11.24H77.5186L80.0586 18.52L82.6986 11.24H85.3386L87.8986 18.52L90.5186 11.24H93.2786ZM104.976 16.66C104.976 16.7 104.956 16.98 104.916 17.5H96.7761C96.9228 18.1667 97.2694 18.6933 97.8161 19.08C98.3628 19.4667 99.0428 19.66 99.8561 19.66C100.416 19.66 100.909 19.58 101.336 19.42C101.776 19.2467 102.183 18.98 102.556 18.62L104.216 20.42C103.203 21.58 101.723 22.16 99.7761 22.16C98.5628 22.16 97.4894 21.9267 96.5561 21.46C95.6228 20.98 94.9028 20.32 94.3961 19.48C93.8894 18.64 93.6361 17.6867 93.6361 16.62C93.6361 15.5667 93.8828 14.62 94.3761 13.78C94.8828 12.9267 95.5694 12.2667 96.4361 11.8C97.3161 11.32 98.2961 11.08 99.3761 11.08C100.429 11.08 101.383 11.3067 102.236 11.76C103.089 12.2133 103.756 12.8667 104.236 13.72C104.729 14.56 104.976 15.54 104.976 16.66ZM99.3961 13.44C98.6894 13.44 98.0961 13.64 97.6161 14.04C97.1361 14.44 96.8428 14.9867 96.7361 15.68H102.036C101.929 15 101.636 14.46 101.156 14.06C100.676 13.6467 100.089 13.44 99.3961 13.44ZM117.593 16.66C117.593 16.7 117.573 16.98 117.533 17.5H109.393C109.54 18.1667 109.887 18.6933 110.433 19.08C110.98 19.4667 111.66 19.66 112.473 19.66C113.033 19.66 113.527 19.58 113.953 19.42C114.393 19.2467 114.8 18.98 115.173 18.62L116.833 20.42C115.82 21.58 114.34 22.16 112.393 22.16C111.18 22.16 110.107 21.9267 109.173 21.46C108.24 20.98 107.52 20.32 107.013 19.48C106.507 18.64 106.253 17.6867 106.253 16.62C106.253 15.5667 106.5 14.62 106.993 13.78C107.5 12.9267 108.187 12.2667 109.053 11.8C109.933 11.32 110.913 11.08 111.993 11.08C113.047 11.08 114 11.3067 114.853 11.76C115.707 12.2133 116.373 12.8667 116.853 13.72C117.347 14.56 117.593 15.54 117.593 16.66ZM112.013 13.44C111.307 13.44 110.713 13.64 110.233 14.04C109.753 14.44 109.46 14.9867 109.353 15.68H114.653C114.547 15 114.253 14.46 113.773 14.06C113.293 13.6467 112.707 13.44 112.013 13.44ZM126.61 21.48C126.304 21.7067 125.924 21.88 125.47 22C125.03 22.1067 124.564 22.16 124.07 22.16C122.79 22.16 121.797 21.8333 121.09 21.18C120.397 20.5267 120.05 19.5667 120.05 18.3V13.88H118.39V11.48H120.05V8.86H123.17V11.48H125.85V13.88H123.17V18.26C123.17 18.7133 123.284 19.0667 123.51 19.32C123.75 19.56 124.084 19.68 124.51 19.68C125.004 19.68 125.424 19.5467 125.77 19.28L126.61 21.48ZM76.5 32V46H73.26V40.26H66.9V46H63.66V32H66.9V37.52H73.26V32H76.5ZM84.7123 46.16C83.579 46.16 82.559 45.9267 81.6523 45.46C80.759 44.98 80.059 44.32 79.5523 43.48C79.0457 42.64 78.7923 41.6867 78.7923 40.62C78.7923 39.5533 79.0457 38.6 79.5523 37.76C80.059 36.92 80.759 36.2667 81.6523 35.8C82.559 35.32 83.579 35.08 84.7123 35.08C85.8457 35.08 86.859 35.32 87.7523 35.8C88.6457 36.2667 89.3457 36.92 89.8523 37.76C90.359 38.6 90.6123 39.5533 90.6123 40.62C90.6123 41.6867 90.359 42.64 89.8523 43.48C89.3457 44.32 88.6457 44.98 87.7523 45.46C86.859 45.9267 85.8457 46.16 84.7123 46.16ZM84.7123 43.6C85.5123 43.6 86.1657 43.3333 86.6723 42.8C87.1923 42.2533 87.4523 41.5267 87.4523 40.62C87.4523 39.7133 87.1923 38.9933 86.6723 38.46C86.1657 37.9133 85.5123 37.64 84.7123 37.64C83.9123 37.64 83.2523 37.9133 82.7323 38.46C82.2123 38.9933 81.9523 39.7133 81.9523 40.62C81.9523 41.5267 82.2123 42.2533 82.7323 42.8C83.2523 43.3333 83.9123 43.6 84.7123 43.6ZM106.478 35.08C107.824 35.08 108.891 35.48 109.678 36.28C110.478 37.0667 110.878 38.2533 110.878 39.84V46H107.758V40.32C107.758 39.4667 107.578 38.8333 107.218 38.42C106.871 37.9933 106.371 37.78 105.718 37.78C104.984 37.78 104.404 38.02 103.978 38.5C103.551 38.9667 103.338 39.6667 103.338 40.6V46H100.218V40.32C100.218 38.6267 99.5378 37.78 98.1778 37.78C97.4578 37.78 96.8845 38.02 96.4578 38.5C96.0311 38.9667 95.8178 39.6667 95.8178 40.6V46H92.6978V35.24H95.6778V36.48C96.0778 36.0267 96.5645 35.68 97.1378 35.44C97.7245 35.2 98.3645 35.08 99.0578 35.08C99.8178 35.08 100.504 35.2333 101.118 35.54C101.731 35.8333 102.224 36.2667 102.598 36.84C103.038 36.28 103.591 35.8467 104.258 35.54C104.938 35.2333 105.678 35.08 106.478 35.08ZM124.332 40.66C124.332 40.7 124.312 40.98 124.272 41.5H116.132C116.278 42.1667 116.625 42.6933 117.172 43.08C117.718 43.4667 118.398 43.66 119.212 43.66C119.772 43.66 120.265 43.58 120.692 43.42C121.132 43.2467 121.538 42.98 121.912 42.62L123.572 44.42C122.558 45.58 121.078 46.16 119.132 46.16C117.918 46.16 116.845 45.9267 115.912 45.46C114.978 44.98 114.258 44.32 113.752 43.48C113.245 42.64 112.992 41.6867 112.992 40.62C112.992 39.5667 113.238 38.62 113.732 37.78C114.238 36.9267 114.925 36.2667 115.792 35.8C116.672 35.32 117.652 35.08 118.732 35.08C119.785 35.08 120.738 35.3067 121.592 35.76C122.445 36.2133 123.112 36.8667 123.592 37.72C124.085 38.56 124.332 39.54 124.332 40.66ZM118.752 37.44C118.045 37.44 117.452 37.64 116.972 38.04C116.492 38.44 116.198 38.9867 116.092 39.68H121.392C121.285 39 120.992 38.46 120.512 38.06C120.032 37.6467 119.445 37.44 118.752 37.44Z" fill="#EEC962"/>
<g clip-path="url(#clip0)">
<path d="M49.9868 21.6298C49.8969 20.4591 49.3565 19.3939 48.4652 18.6302L44.1404 14.9232V4.38926C44.1404 3.58027 43.4846 2.92451 42.6757 2.92451H36.8165C36.0075 2.92451 35.3713 3.58037 35.3713 4.38926V7.39004L27.9581 1.07216C26.3008 -0.347669 23.8953 -0.347473 22.2433 1.06796L1.53594 18.63C-0.295412 20.1992 -0.53301 22.9682 1.06074 24.8286C2.27549 26.2412 4.2213 26.6915 5.88009 26.1085V48.5289C5.88009 49.3379 6.51642 49.9936 7.32531 49.9936H42.6756C43.4846 49.9936 44.1403 49.3378 44.1403 48.5289V26.1088C45.8526 26.7143 47.7574 26.2069 48.9418 24.8266C49.7055 23.9352 50.0767 22.7998 49.9868 21.6298ZM38.2812 5.854H41.2304V12.412L38.2812 9.90098V5.854ZM30.9768 47.0641H19.0437V35.3262H30.9768V47.0641ZM41.2304 47.0641H33.8869V33.881C33.8869 33.072 33.231 32.4163 32.4221 32.4163H17.5788C16.7699 32.4163 16.1336 33.0721 16.1336 33.881V47.0641H8.79015V24.0017L25.0932 10.1723L41.2305 23.988V47.0641H41.2304ZM46.7178 22.9196C46.1984 23.5248 45.2752 23.6136 44.6516 23.0788L26.0513 7.13506C25.5049 6.6666 24.6993 6.66465 24.1505 7.13018C23.7542 7.46631 5.42774 23.0122 5.35021 23.0781C4.73673 23.603 3.80899 23.5314 3.2837 22.9203C2.75782 22.3066 2.82891 21.3799 3.43692 20.8588L24.1444 3.29667C24.6971 2.82324 25.4993 2.82314 26.0516 3.29648L46.5589 20.8546C47.172 21.38 47.243 22.3068 46.7178 22.9196Z" fill="#EEC962"/>
<path d="M29.4924 17.5721H20.5084C19.6994 17.5721 19.0632 18.228 19.0632 19.0369V27.8256C19.0632 28.6345 19.6995 29.2903 20.5084 29.2903H29.4924C30.3014 29.2903 30.9572 28.6344 30.9572 27.8256V19.0369C30.9573 18.2279 30.3014 17.5721 29.4924 17.5721ZM28.0472 26.3609H21.9732V20.5017H28.0472V26.3609Z" fill="#EEC962"/>
<path d="M26.5624 41.2045C27.3714 41.2045 28.0272 40.5487 28.0272 39.7397C28.0272 38.9308 27.3714 38.275 26.5624 38.275C25.7535 38.275 25.0977 38.9308 25.0977 39.7397C25.0977 40.5487 25.7535 41.2045 26.5624 41.2045Z" fill="#EEC962"/>
</g>
<defs>
<clipPath id="clip0">
<rect width="50" height="50" fill="white"/>
</clipPath>
</defs>
</svg>
